Coordinates
version=1
nRows=13
nColumns=36
inDegrees=yes

Units are S.I. units (second, meters, Newtons, ...)
If the header above contains a line with 'inDegrees', this indicates whether rotational values are in degrees (yes) or radians (no).

endheader
time	pelvis_tilt	pelvis_list	pelvis_rotation	pelvis_tx	pelvis_ty	pelvis_tz	hip_flexion_r	hip_adduction_r	hip_rotation_r	knee_angle_r	knee_angle_r_beta	ankle_angle_r	subtalar_angle_r	mtp_angle_r	hip_flexion_l	hip_adduction_l	hip_rotation_l	knee_angle_l	knee_angle_l_beta	ankle_angle_l	subtalar_angle_l	mtp_angle_l	lumbar_extension	lumbar_bending	lumbar_rotation	arm_flex_r	arm_add_r	arm_rot_r	elbow_flex_r	pro_sup_r	arm_flex_l	arm_add_l	arm_rot_l	elbow_flex_l	pro_sup_l
      0.00000000	     -1.68697178	      1.39307094	     17.49657596	     -1.02366009	      1.30160381	     -0.06088565	     -0.79361885	     -1.73530975	     -6.73336554	      4.53319930	      0.07911925	      7.17826255	    -18.14987466	     -5.82330103	      5.88940735	     -0.28823758	     15.35003470	      8.08781676	      0.14115903	      6.69736187	     -2.30401628	     -5.82330103	     -9.14456723	      2.36033614	      8.98401661	     17.39573961	     -6.53555879	     44.09406328	     45.27490688	     77.88243578	      7.75075373	     -0.35436339	     30.07077596	     56.85760857	     75.86191552
      0.00416670	     -3.76495121	      0.55372427	     18.20526101	     -1.02446424	      1.29860509	     -0.06077222	      1.08539180	     -1.09573404	     -7.62775256	      2.87854275	      0.05024005	      6.43487406	    -17.22694977	     -5.96854280	      7.72757153	     -0.18903070	     18.27407344	      6.62051950	      0.11554986	      5.65814871	     -2.38115321	     -5.96854280	     -6.71530528	      2.48210697	      9.91369587	     16.74950583	     -7.35682767	     42.92155470	     46.16196306	     76.77719311	      8.92590939	     -0.84749652	     32.04782840	     56.52557344	     74.28443585
      0.00833330	     -3.47136312	      0.79368670	     18.30710077	     -1.01829602	      1.29976844	     -0.06446640	     -0.13644324	     -0.87946483	     -7.99780794	      1.46240952	      0.02552386	      4.96143198	    -18.17898896	     -6.03026535	      6.62161980	     -0.24098528	     19.01822536	      5.52029900	      0.09634739	      5.99208657	     -1.37038496	     -6.03026535	     -7.31564337	      2.03764201	     11.01425048	     16.44295275	     -7.54344427	     42.21602814	     45.61695891	     77.22113213	     10.06733049	     -0.88652337	     33.37874954	     55.56670339	     73.09200227
      0.01250000	     -2.70938251	      1.09864908	     18.19117538	     -1.01930948	      1.30177913	     -0.06374219	     -1.31992477	     -0.91592651	     -8.05774242	      1.01711602	      0.01775202	      4.47744164	    -18.68143869	     -6.60371575	      5.07053968	     -0.34342838	     19.77171782	      4.26825859	      0.07449517	      5.89862415	     -1.59439398	     -6.60371575	     -8.37673396	      1.69232623	     12.40222296	     15.63998832	     -7.82711766	     40.15664575	     46.21413231	     81.89123228	     10.97253185	     -0.79753274	     35.11160172	     55.04378860	     68.34041167
      0.01666670	     -2.68042135	      1.07914027	     17.83024562	     -1.02580740	      1.30545333	     -0.05840390	     -1.22311906	     -0.85927902	     -8.03828671	      0.81009336	      0.01413880	      4.20200964	    -18.78772389	     -6.62530112	      4.80292727	     -0.50284528	     20.25538652	      3.53513527	      0.06169975	      5.38488423	     -1.86301944	     -6.62530112	     -8.72691989	      1.56278518	     12.94914871	     15.81456651	     -7.77811887	     40.49424684	     46.39416105	     82.16109996	     11.40988115	     -0.78084722	     35.26375240	     54.99528632	     68.53134626
      0.02083330	     -2.24189241	      1.16398258	     17.56359624	     -1.01994123	      1.30170235	     -0.06267140	     -1.85223487	     -0.83409145	     -7.64912654	      0.66539980	      0.01161342	      3.53594699	    -19.73624222	     -6.67511790	      4.03386242	     -0.56492077	     20.77216001	      3.17487750	      0.05541207	      5.26977492	     -2.22350570	     -6.67511790	     -9.11789157	      1.57006794	     13.44182566	     15.57037575	     -8.00371650	     41.19025013	     47.16094973	     80.97537285	     11.50409502	     -0.76106556	     36.18175140	     55.00801667	     68.97953008
      0.02500000	     -1.93382381	      1.23300224	     17.37766086	     -1.01995408	      1.30220719	     -0.06225448	     -2.26587365	     -0.82944027	     -7.92425140	      0.61782288	      0.01078304	      3.70763916	    -19.27855435	     -7.13444833	      3.50702866	     -0.56046687	     21.36282379	      2.87195125	      0.05012501	      4.84887301	     -3.30493908	     -7.13444833	     -9.41068865	      1.58269093	     13.77242051	     15.32943561	     -8.00356911	     41.22550697	     47.50016081	     81.84355608	     11.54627410	     -0.54237995	     36.01778827	     54.52535282	     76.78259718
      0.02916670	     -1.73512855	      1.39018055	     17.26703835	     -1.02046974	      1.30569324	     -0.06190469	     -2.56630660	     -0.93460321	     -7.73542509	      0.55253620	      0.00964358	      3.90649677	    -18.80510780	     -7.33902788	      3.13712290	     -0.42713469	     21.92360222	      2.72218298	      0.04751106	      4.28051690	     -4.26212392	     -7.33902788	     -9.58557611	      1.53395222	     14.08755261	     15.14650552	     -8.12284395	     41.66011021	     47.85574137	     80.23412066	     11.34754876	     -0.45280284	     36.15443516	     54.37881394	     79.24235465
      0.03333330	     -1.36207218	      1.48205718	     17.14728007	     -1.02045101	      1.30250483	     -0.06122141	     -3.02457452	     -0.90397523	     -7.44964513	      0.53264815	      0.00929646	      4.07190981	    -18.50093631	     -7.36567877	      2.61606578	     -0.45098943	     22.31025795	      2.58967732	      0.04519840	      4.05971152	     -4.89160753	     -7.36567877	    -10.01215630	      1.58135102	     14.28589024	     15.08399387	     -8.28240329	     42.05781647	     48.44867173	     78.45751693	     11.48531481	     -0.51412774	     36.78974793	     54.44475571	     78.15688773
      0.03750000	     -0.96904281	      1.58259118	     16.85411720	     -1.02100380	      1.30282379	     -0.06091783	     -3.46672662	     -0.90503066	     -7.15264596	      0.54092922	      0.00944100	      4.15579929	    -18.26316515	     -7.38223705	      2.06662098	     -0.48242023	     22.55723983	      2.44752644	      0.04271739	      3.82078964	     -5.50289079	     -7.38223705	    -10.54834208	      1.52970740	     14.28992372	     15.22412569	     -8.32938138	     42.34320583	     48.66819901	     77.66769612	     11.77999386	     -0.56086732	     37.27571073	     53.87171372	     78.01598524
      0.04166670	     -0.51709954	      1.65946541	     16.49126667	     -1.01409867	      1.30363724	     -0.05596502	     -4.05340948	     -0.72562885	     -6.71465266	      0.52767658	      0.00920969	      4.31277806	    -18.12269776	     -7.38548466	      1.33409936	     -0.72598077	     22.85677718	      2.34626573	      0.04095006	      3.82029735	     -6.06333420	     -7.38548466	    -11.06370109	      1.35508338	     14.37373566	     15.24988145	     -8.24940735	     42.26817208	     48.84825118	     77.54878797	     11.90021257	     -0.92558765	     37.63099617	     53.63895309	     78.53815920
      0.04583330	     -0.27666549	      1.63782955	     16.21438127	     -1.02137010	      1.30342658	     -0.06005379	     -4.24293642	     -0.67302709	     -6.45799627	      0.53048886	      0.00925878	      4.37475741	    -17.87853808	     -7.38927818	      0.99132538	     -0.84155423	     23.16048206	      2.24939249	      0.03925931	      3.75468885	     -6.71812326	     -7.38927818	    -11.36657098	      1.49091568	     14.55942757	     15.28717327	     -8.43363088	     42.32930478	     48.76937061	     77.34171420	     12.15250194	     -0.87863267	     38.13795157	     53.10583872	     79.20206882
      0.05000000	     -0.19071374	      1.67970283	     15.96358748	     -1.02109567	      1.30026435	     -0.05941650	     -4.25306057	     -0.72046963	     -5.98859454	      0.53061399	      0.00926096	      4.43603363	    -17.91241113	     -7.42677496	      0.84851540	     -0.83522000	     23.64637656	      2.21888799	      0.03872690	      3.62806428	     -7.48238557	     -7.42677496	    -11.59065899	      1.45908590	     14.65574240	     15.30621043	     -8.58926567	     42.09693622	     48.72636746	     75.50926580	     12.39455865	     -0.93200993	     38.25103625	     52.92904243	     82.08404996
